<svg width="100" height="32" viewBox="0 0 100 32" fill="none" xmlns="http://www.w3.org/2000/svg">
<g clip-path="url(#clip0_943_13747)">
<path d="M9.59611 10.1619C9.01707 10.2503 8.72725 10.294 8.14821 10.3824C7.91038 7.39337 9.58417 5.12084 12.5075 4.45874C12.5953 5.03778 12.6395 5.3276 12.728 5.90664C10.606 6.4546 9.48793 7.96405 9.59669 10.1619H9.59611Z" fill="#19FB9B"/>
<path d="M27.5266 18.0222C27.5266 18.0222 27.3395 16.1752 25.7381 15.9529C24.136 15.7306 23.793 16.3036 23.793 16.3036C23.793 16.3036 24.9935 17.4569 25.321 18.9694C25.6484 20.4812 25.1184 20.8398 24.5573 20.3725C23.9956 19.9046 23.4817 18.9694 22.5931 16.3975C21.7045 13.825 19.9895 10.91 15.9524 9.28883C13.6487 8.3638 10.9501 8.1702 8.42004 8.74744C8.28081 8.73788 8.13979 8.72832 7.99638 8.71876C4.00763 8.46181 2.13307 8.66677 1.66339 8.7331C1.59347 8.74326 1.52356 8.74684 1.45304 8.75281C1.12498 8.7803 0.807082 9.08387 0.713265 9.47348L0.00514494 12.4123C-0.171137 13.1455 -0.0564036 13.8554 0.274647 14.3771L0.272853 14.3759L0.727008 15.1235C0.631995 15.3864 0.547727 15.6541 0.476019 15.9272C0.339774 16.4477 0.247163 16.9849 0.20354 17.5328C1.78051 16.7608 4.86871 15.6314 9.55063 17.3739C16.3007 19.8854 16.6748 23.1278 21.5695 24.3887C24.3768 25.1117 25.808 24.1658 26.5777 23.0101C26.9458 22.2936 27.2039 21.4953 27.3162 20.6061C27.3162 20.6061 28.7426 20.4776 29.8063 19.8347C30.8705 19.1917 31.5601 18.6067 31.9229 18.5015C31.9229 18.5015 30.9052 16.6078 27.5266 18.0222Z" fill="#19FB9B"/>
<path d="M15.7855 5.01013C15.7992 3.50495 14.59 2.27366 13.0849 2.26C11.5797 2.24634 10.3484 3.45548 10.3347 4.96066C10.3211 6.46585 11.5302 7.69711 13.0354 7.71077C14.5406 7.72443 15.7718 6.51532 15.7855 5.01013Z" fill="#19FB9B"/>
<path d="M14.3024 4.99681C14.3086 4.31072 13.7575 3.74948 13.0714 3.74325C12.3853 3.73703 11.824 4.28817 11.8178 4.97426C11.8116 5.66036 12.3627 6.2216 13.0488 6.22783C13.7349 6.23405 14.2961 5.68291 14.3024 4.99681Z" fill="white"/>
<path d="M26.5777 23.0102C25.03 26.0255 21.5408 27.5947 18.8207 28.4008C15.4534 29.3981 7.72871 29.8989 3.23204 25.2827C0.845366 22.8327 0.00101101 20.0654 0.203585 17.5329C1.78056 16.7609 4.86816 15.6315 9.55067 17.3739C16.3008 19.8855 16.6749 23.1279 21.5695 24.3888C24.3769 25.1118 25.808 24.1659 26.5777 23.0102Z" fill="#9945FF"/>
<path d="M1.08956 12.4787L1.00649 12.8247C0.91446 13.2083 0.918056 13.5842 1.00231 13.9176C1.03398 14.0425 1.077 14.1614 1.13078 14.2726C1.16126 14.3359 1.19471 14.3975 1.23235 14.4554C1.2443 14.4751 1.25686 14.4931 1.26941 14.511C1.32916 14.5976 1.39668 14.6771 1.47138 14.7476C1.58611 14.8582 1.71819 14.949 1.864 15.0153C1.94766 15.0536 2.03669 15.084 2.12931 15.1056L3.14039 14.8946L3.36447 14.848L3.60589 14.7978L1.44389 11.0081L1.08956 12.4787Z" fill="#260246"/>
<path d="M2.48187 9.48409L5.35555 14.5192C5.55394 14.506 5.75353 14.5001 5.95312 14.5013C6.1539 14.5019 6.3559 14.5102 6.55847 14.5258L3.63817 9.4082C3.09319 9.42792 2.71492 9.45959 2.48187 9.48409Z" fill="#260246"/>
<path d="M16.5485 10.7026C16.5061 10.699 16.4643 10.6913 16.4249 10.6793C16.401 10.6715 14.1428 9.98675 9.09095 9.58459C8.91527 9.57085 8.73598 9.55709 8.55373 9.54394C8.52445 9.54155 8.49578 9.53977 8.4671 9.53798C8.28305 9.52483 8.10378 9.51228 7.92929 9.50152C7.57314 9.47881 7.2361 9.46029 6.9164 9.44535C6.81781 9.44057 6.72159 9.43639 6.62658 9.43281C6.4019 9.42324 6.18678 9.41547 5.98122 9.40889C5.79657 9.40352 5.61969 9.39934 5.44998 9.39635C5.24561 9.39276 5.052 9.39098 4.86855 9.39038H4.83508L7.87849 14.7242C8.81248 14.9364 9.72794 15.2997 10.604 15.8136L12.9028 17.1623C14.2862 17.3792 15.703 16.4608 16.0329 15.0702L16.9459 11.2183C17.0075 10.9572 16.8288 10.7253 16.5485 10.7026Z" fill="#260246"/>
<path d="M2.19176 9.52227C2.16427 9.52765 2.13737 9.52885 2.11108 9.52706C1.94257 9.51331 1.76689 9.66569 1.71849 9.86647L1.4436 11.0084L3.6056 14.7982L4.15955 14.6822C4.53063 14.6051 4.90591 14.552 5.28476 14.5245C5.30807 14.5227 5.33195 14.5209 5.35526 14.5197L2.48158 9.48462C2.28797 9.50553 2.19534 9.52108 2.19176 9.52227Z" fill="white"/>
<path d="M4.83485 9.39083C4.62451 9.39024 4.42791 9.39082 4.24446 9.39381C4.15602 9.39501 4.07117 9.3968 3.9893 9.3986C3.86501 9.40158 3.74789 9.40516 3.63794 9.40875L6.55824 14.5263C6.81759 14.5448 7.0787 14.5759 7.33983 14.6189C7.5197 14.6488 7.69899 14.6841 7.87825 14.7247L4.83485 9.39083Z" fill="white"/>
</g>
<g clip-path="url(#clip1_943_13747)">
<path d="M39.4093 14.5056L36.0007 3.71021H38.3914L40.6124 10.9273L42.9566 3.71021H45.2854L47.5986 10.9273L49.8344 3.71021H52.2096L48.7862 14.5056H46.3807L44.0985 7.14909L41.8007 14.5056H39.4093Z" fill="white"/>
<path d="M41.8 17.6951L44.0977 25.0515L46.38 17.6951H48.7855L52.2088 28.4904H49.8337L47.5979 21.2733L45.2846 28.4904H42.9559L40.6117 21.2733L38.3907 28.4904H36L39.4086 17.6951H41.8Z" fill="white"/>
<path d="M53.3661 14.5056V3.71021H55.6949V7.96639H60.1981V3.71021H62.5269V14.5056H60.1981V10.1564H55.6949V14.5056H53.3661Z" fill="white"/>
<path d="M63.6828 14.5056L68.3093 3.71021H70.7147L75.3412 14.5056H72.7809L71.8714 12.4084H67.1527L66.2579 14.5056H63.6828ZM67.9087 10.3571H71.1167L69.5285 6.59436H69.4976L67.9087 10.3571Z" fill="white"/>
<path d="M76.4985 14.5056V3.71021H78.8273V12.362H82.7139V14.5056H76.4985Z" fill="white"/>
<path d="M84.2401 14.5056V3.71021H90.2702V5.85378H86.5688V7.96639H90.0851V10.11H86.5688V12.3613H90.347V14.5048H84.2401V14.5056Z" fill="white"/>
<path d="M96.0379 7.88962C97.688 8.32115 99.6774 8.90755 99.6774 11.344C99.6774 13.3024 98.0582 14.7061 95.6831 14.7061C93.9865 14.7061 92.7067 14.074 91.6578 12.8709L93.2614 11.3749C93.909 12.1 94.5877 12.5625 95.6824 12.5625C96.839 12.5625 97.3479 12.0691 97.3479 11.4059C97.3479 10.6196 96.299 10.3725 95.0966 10.0332C93.524 9.60167 91.9042 8.86109 91.9042 6.67105C91.9042 4.80483 93.4156 3.50952 95.5901 3.50952C97.3022 3.50952 98.3504 4.1262 99.3528 5.12865L97.7492 6.57812C97.2247 6.03818 96.5151 5.65312 95.5746 5.65312C94.7109 5.65312 94.2329 6.02339 94.2329 6.62458C94.2329 7.33418 95.0354 7.62704 96.0379 7.88962Z" fill="white"/>
<path d="M52.1166 28.4904L56.7431 17.6951H59.1486L63.775 28.4904H61.2147L60.3052 26.3933H55.5858L54.691 28.4904H52.1166ZM56.3425 24.3419H59.5498L57.9617 20.5792H57.9307L56.3425 24.3419Z" fill="white"/>
<path d="M70.8541 28.4904L68.0164 24.6038H66.8598V28.4904H64.5466V17.6951H68.8182C70.4838 17.6951 72.2726 18.8362 72.2726 21.1494C72.2726 22.7073 71.4553 23.74 70.4064 24.249L73.475 28.4897H70.8541V28.4904ZM66.8598 22.5834H68.448C69.4194 22.5834 69.9439 21.9822 69.9439 21.1494C69.9439 20.3166 69.4194 19.7155 68.448 19.7155H66.8598V22.5834Z" fill="white"/>
<path d="M76.5605 23.4627V28.4904H74.2473V17.6951H76.5605V22.3215L80.1845 17.6951H82.9145L78.8892 22.8925L83.0687 28.4904H80.3542L76.5605 23.4627Z" fill="white"/>
<path d="M84.2401 28.4904V17.6951H90.2702V19.8387H86.5688V21.9513H90.0851V24.0948H86.5688V26.3461H90.347V28.4897H84.2401V28.4904Z" fill="white"/>
<path d="M94.5109 28.4904V19.8387H91.6268V17.6951H99.7076V19.8387H96.8235V28.4904H94.5109Z" fill="white"/>
</g>
<defs>
<clipPath id="clip0_943_13747">
<rect width="32" height="32" fill="white"/>
</clipPath>
<clipPath id="clip1_943_13747">
<rect width="63.7076" height="24.981" fill="white" transform="translate(36 3.50952)"/>
</clipPath>
</defs>
</svg>
