<svg xmlns="http://www.w3.org/2000/svg" xml:space="preserve" style="shape-rendering:geometricPrecision;text-rendering:geometricPrecision;image-rendering:optimizeQuality;fill-rule:evenodd;clip-rule:evenodd" viewBox="0 0 3387 3387"><defs><linearGradient id="id0" x1="1624.94" x2="2076.52" y1="1005.86" y2="1254.73" gradientUnits="userSpaceOnUse"><stop offset="0" style="stop-opacity:1;stop-color:#ae60ff"/><stop offset=".031" style="stop-opacity:1;stop-color:#b669ff"/><stop offset="1" style="stop-opacity:1;stop-color:#bf73ff"/></linearGradient><linearGradient id="id1" x1="1386.05" x2="801.67" y1="642.7" y2="1539.63" gradientUnits="userSpaceOnUse"><stop offset="0" style="stop-opacity:1;stop-color:#6a0aff"/><stop offset=".51" style="stop-opacity:1;stop-color:#8c2dff"/><stop offset=".969" style="stop-opacity:1;stop-color:#af50ff"/><stop offset="1" style="stop-opacity:1;stop-color:#af50ff"/></linearGradient><linearGradient id="id2" x1="993.05" x2="1048.61" y1="1326.92" y2="1652.83" gradientUnits="userSpaceOnUse"><stop offset="0" style="stop-opacity:1;stop-color:#6000ff"/><stop offset="1" style="stop-opacity:1;stop-color:#3e00a5"/></linearGradient><linearGradient id="id3" x1="2330.75" x2="2713" y1="1660.34" y2="2187.07" gradientUnits="userSpaceOnUse"><stop offset="0" style="stop-opacity:1;stop-color:#9335fe"/><stop offset=".031" style="stop-opacity:1;stop-color:#a954fe"/><stop offset="1" style="stop-opacity:1;stop-color:#bf73ff"/></linearGradient><linearGradient id="id4" x1="-100.99" x2="2213.64" y1="3189.61" y2="2592.59" gradientUnits="userSpaceOnUse"><stop offset="0" style="stop-opacity:1;stop-color:#9838ff"/><stop offset=".322" style="stop-opacity:1;stop-color:#af50ff"/><stop offset="1" style="stop-opacity:1;stop-color:#6000ff"/></linearGradient><linearGradient id="id5" x1="1566.97" x2="2017.31" y1="447.66" y2="1490.97" gradientUnits="userSpaceOnUse"><stop offset="0" style="stop-opacity:1;stop-color:#6f0fff"/><stop offset=".702" style="stop-opacity:1;stop-color:#a94aff"/><stop offset="1" style="stop-opacity:1;stop-color:#a94aff"/></linearGradient><linearGradient id="id6" x1="2323.91" x2="2502.33" y1="1240.65" y2="1895.14" gradientUnits="userSpaceOnUse"><stop offset="0" style="stop-opacity:1;stop-color:#6a0aff"/><stop offset=".051" style="stop-opacity:1;stop-color:#892aff"/><stop offset=".102" style="stop-opacity:1;stop-color:#6a0aff"/><stop offset=".902" style="stop-opacity:1;stop-color:#a94aff"/><stop offset="1" style="stop-opacity:1;stop-color:#a94aff"/></linearGradient><linearGradient id="id7" x1="2227" x2="1676.19" y1="2571.65" y2="2295.47" gradientUnits="userSpaceOnUse"><stop offset="0" style="stop-opacity:1;stop-color:#6000ff"/><stop offset=".651" style="stop-opacity:1;stop-color:#4900c3"/><stop offset="1" style="stop-opacity:1;stop-color:#320086"/></linearGradient><style>.fil0{fill:#6000ff;fill-rule:nonzero}</style></defs><g id="Layer_x0020_1"><g id="_2328355826240"><path d="m2310.25 1320.41 408.14 868.79c4.02 9.03 2.01 20.07-5.02 27.09L1639.75 3253.64c-8.05 7.01-20.11 2-20.11-9.03v-953.08l676.53-653.1c5.03-4.01 7.04-11.04 7.04-17.06l2.01-300.96c0-2.01 4.02-2.01 5.03 0z" class="fil0"/><path d="M1619.63 2291.54v953.08c0 11.02 12.07 16.04 20.11 9.02L2713.36 2216.3c7.05-7.03 9.04-18.06 5.04-27.09l-419.17-554.04-679.6 656.37z" style="fill:url(#id7)"/><path d="M2307.45 1317.84H2307.3c-1.25.03-2.43.78-2.43 2.4l-1.7 300.93c0 4-.93 9.98-3.94 14l420.81 567.91c1.01-5.02 0-10.03-2.01-15.06l-408.14-868.79c-.43-.87-1.44-1.36-2.44-1.39z" style="fill:url(#id6)"/><path d="M2720.04 2203.08c1.01-5.02 0-10.03-2.01-15.06l-21.11-45.12-379.94-483.79 403.06 543.97z" style="fill:url(#id3)"/><path d="m1345.19 591.06-192.01 543.75c-2 6.03-2 13.04 1.01 19.05L1333.13 1506l-492.58 278.91c-6.04 3-14.08 1-17.1-5.02l-106.56-221.71c-4.02-8.03-3.01-16.06 2.02-23.08l621.25-947.06c2.02-2 6.04 0 5.03 3.02z" class="fil0"/><path d="M1342.26 587.24h-.2c-.68.02-1.36.27-1.89.8l-594.72 906.59-.67 1.19 408.41-361.01 1.29-3.66c0-.01 0-.01.01-.01l.08-.25 190.63-539.83c.7-2.14-1.11-3.76-2.94-3.82z" style="fill:url(#id1)"/><path d="M718.91 1535.11c-5.02 7.01-6.03 15.03-2.01 23.07l106.55 221.71c3.03 6.02 11.06 8.02 17.11 5.01l492.57-278.9-178.93-352.12c-3.03-6.03-3.03-13.06-1.01-19.07l-434.28 400.3z" style="fill:url(#id2)"/><path d="M1619.63 151.64v845.72c0 5.02-2.02 10.04-5.02 14.06L654.57 2312.61c-7.04 9.02-6.03 23.06 3.01 31.09l673.54 650.1c6.03 6.01 16.09 4.01 19.1-4.01l731.83-1712.51c2.02-5.04 2.02-12.05 0-18.07L1628.68 149.64c-.81-2.02-2.45-2.91-4.1-2.91-2.45 0-4.95 1.92-4.95 4.91z" style="fill:url(#id4)"/><path d="M1624.35 146.73h-.08c-2.45 0-4.95 1.92-4.95 4.91l.31 845.72c0 2.02-.47 4.71-1.25 7.02l457.7 240.98-447.71-1095.72c-.8-2-2.4-2.88-4.02-2.91zm-5.97 857.65 87.39 50.17-87.39-50.17z" style="fill:url(#id5)"/><path d="M2083.63 1268.61v-.14c-.02-2.97-.43-5.81-1.42-8.78l-5.81-14.33-458.02-240.98 87.71 50.17 377.54 214.06z" style="fill:url(#id0)"/><path d="m744.51 1496.07-25.29 38.55 433.97-399.81z" style="fill:#b46cf3;fill-rule:nonzero"/></g></g></svg>