<svg xmlns="http://www.w3.org/2000/svg" id="Layer_1" data-name="Layer 1" viewBox="0 0 1055.6 1094.3"><defs><style>.cls-2{fill:#fff}</style></defs><path d="M-17.7-25.1H1074v1147.53H-17.7z" style="fill:#2992fa"/><path d="M767.2 312.7c-56.6-46.3-126.1-71.6-196.4-71.6a304.9 304.9 0 0 0-305.2 287l-.4 8.3h36l.8-7.4c9.9-141.1 128.2-251.1 269.2-251.1 63.7 0 123.3 21.1 171.6 61.2l2.9 2.5 25.7-25.6z" class="cls-2"/><path d="M731.7 663.4c-37.7 51.2-97.6 81.8-160.9 81.8-109.2 0-198.1-88.9-198.1-198s88.9-196.9 198.1-196.9a199.6 199.6 0 0 1 160.9 81.9l2.9 3.7 26-26-2-2.9c-44.7-58.8-114.6-93.5-187.4-93.5-129.4 0-234.9 104.6-234.9 233.2s105.5 234.9 234.9 234.9c72.8 0 143.1-35.1 187.4-93.4l2-2.9-26-26.1zM809 356.1c-5.8-7-11.6-14.5-18.6-21.5l-2.9-2.9-25.6 25.6 2.9 2.9a225.8 225.8 0 0 1 18.2 21.1l2.8 3.8 25.7-25.7z" class="cls-2"/><path d="m743.3 753.9-2.9 2.5C691.6 796.5 632.8 818 568.7 818c-141 0-259.2-110.4-269.2-251l-.4-9.1h-36.4l.4 9.5c5 78.2 38.9 151 95.6 204.3a306.4 306.4 0 0 0 406.1 11.2l3.3-2.9zM785.4 710.5l-2.9 3.7a190 190 0 0 1-18.2 21.1l-2.9 2.9 25.7 25.6 2.9-2.9a204.6 204.6 0 0 0 18.6-21.5l2.5-2.9z" class="cls-2"/><path d="M830.9 762.6C768.1 840.8 673 885.8 570.8 885.8c-186.5 0-338.3-151.7-338.3-338.2s151.8-338.3 338.3-338.3c100.9 0 195.6 45.1 260.1 123.2l2.9 3.8 25.7-25.7-2.5-2.9a369.5 369.5 0 0 0-286.2-135.6c-206.8 0-375.1 168.3-375.1 375.1s168.3 375 375.1 375c110.8 0 215-49.2 286.6-134.4l2.5-2.9-25.7-25.6z" class="cls-2"/></svg>