<svg xmlns="http://www.w3.org/2000/svg" viewBox="0 0 448 328"><g fill="none" fill-rule="evenodd"><circle cx="224.5" cy="102.5" r="73.5" fill="#FFD740" stroke="#263238" stroke-width="2"/><circle cx="225" cy="102" r="62" fill="#FFD740" stroke="#263238" stroke-width="2"/><path fill="#FFF" stroke="#263238" stroke-linejoin="round" stroke-width="2" d="M195 134.548v-11.597h5.737V82.542H195v-12.31h15.068V61h9.08v9.231h6.775V61h9.292v9.231c7.877 2.383 12.875 6.487 14.994 12.311 2.118 5.824 1.586 11.662-1.596 17.515 7.253 5.946 9.333 13.181 6.238 21.705-3.095 8.524-9.64 12.786-19.636 12.786v9.373h-9.292v-9.373h-6.774v9.373h-9.081v-9.373H195z"/><path fill="#FFD740" stroke="#263238" stroke-linejoin="round" stroke-width="2" d="M212 97.186V84h19.497c4.046.508 6.068 2.706 6.068 6.593s-2.022 6.085-6.068 6.593H212zM212 122.186V109h24.015c4.463.508 6.694 2.706 6.694 6.593s-2.231 6.085-6.694 6.593H212z"/><path fill="#263238" d="M94.2 280.714c-4 0-8.1-.167-12.3-.5-4.2-.334-8-.867-11.4-1.6l16-67c3.8-.734 7.783-1.234 11.95-1.5 4.167-.267 7.983-.4 11.45-.4 4 0 7.45.416 10.35 1.25 2.9.833 5.267 1.95 7.1 3.35 1.833 1.4 3.2 3.05 4.1 4.95.9 1.9 1.35 3.916 1.35 6.05 0 1.466-.15 3-.45 4.6-.3 1.6-.9 3.183-1.8 4.75-.9 1.566-2.133 3.05-3.7 4.45-1.567 1.4-3.617 2.666-6.15 3.8 3 1.333 5.2 3.15 6.6 5.45 1.4 2.3 2.1 4.85 2.1 7.65 0 3.2-.633 6.283-1.9 9.25-1.267 2.966-3.3 5.6-6.1 7.9-2.8 2.3-6.433 4.133-10.9 5.5-4.467 1.366-9.9 2.05-16.3 2.05zm-1.4-31.2-4.3 18c1.067.2 2.417.35 4.05.45 1.633.1 3.15.15 4.55.15 2 0 3.983-.15 5.95-.45 1.967-.3 3.733-.85 5.3-1.65 1.567-.8 2.85-1.9 3.85-3.3s1.5-3.2 1.5-5.4c0-.934-.183-1.867-.55-2.8-.367-.934-.95-1.767-1.75-2.5-.8-.734-1.85-1.334-3.15-1.8-1.3-.467-2.85-.7-4.65-.7H92.8zm2.9-11.7h9.8c4 0 6.983-.867 8.95-2.6 1.967-1.734 2.95-3.8 2.95-6.2 0-1.267-.283-2.35-.85-3.25a6.324 6.324 0 0 0-2.25-2.15c-.933-.534-2-.917-3.2-1.15-1.2-.234-2.433-.35-3.7-.35-1.4 0-2.9.05-4.5.15-1.6.1-2.8.216-3.6.35l-3.6 15.2zm54.9 42h-14.8l12.5-52.6h14.9l-12.6 52.6zm7.2-59c-2.067 0-3.933-.617-5.6-1.85-1.667-1.234-2.5-3.117-2.5-5.65 0-1.4.283-2.717.85-3.95a10.465 10.465 0 0 1 2.25-3.2c.933-.9 2.017-1.617 3.25-2.15a9.844 9.844 0 0 1 3.95-.8c2.067 0 3.933.616 5.6 1.85 1.667 1.233 2.5 3.116 2.5 5.65 0 1.4-.283 2.716-.85 3.95a10.465 10.465 0 0 1-2.25 3.2c-.933.9-2.017 1.616-3.25 2.15-1.233.533-2.55.8-3.95.8zm20.6-6.7 15.5-2.4-3.8 15.5h16.6l-3 12.2h-16.5l-4.4 18.4c-.4 1.533-.65 2.966-.75 4.3-.1 1.333.067 2.483.5 3.45.433.966 1.183 1.716 2.25 2.25 1.067.533 2.533.8 4.4.8 1.6 0 3.15-.15 4.65-.45 1.5-.3 3.017-.717 4.55-1.25l1.1 11.4c-2 .733-4.167 1.366-6.5 1.9-2.333.533-5.1.8-8.3.8-4.6 0-8.167-.684-10.7-2.05-2.533-1.367-4.333-3.234-5.4-5.6-1.067-2.367-1.533-5.084-1.4-8.15.133-3.067.6-6.3 1.4-9.7l9.8-41.4zm28.8 44.7c0-4.534.733-8.8 2.2-12.8s3.567-7.5 6.3-10.5c2.733-3 6.05-5.367 9.95-7.1 3.9-1.734 8.25-2.6 13.05-2.6 3 0 5.683.283 8.05.85 2.367.566 4.517 1.316 6.45 2.25l-5.1 11.6a50.585 50.585 0 0 0-4.15-1.45c-1.433-.434-3.183-.65-5.25-.65-5 0-8.933 1.683-11.8 5.05-2.867 3.366-4.3 7.95-4.3 13.75 0 3.4.733 6.15 2.2 8.25 1.467 2.1 4.167 3.15 8.1 3.15 1.933 0 3.8-.2 5.6-.6 1.8-.4 3.4-.9 4.8-1.5l1.1 11.9c-1.867.733-3.917 1.383-6.15 1.95-2.233.566-4.95.85-8.15.85-4.133 0-7.633-.6-10.5-1.8-2.867-1.2-5.233-2.817-7.1-4.85-1.867-2.034-3.217-4.417-4.05-7.15-.833-2.734-1.25-5.6-1.25-8.6zm66.3 22.4c-3.533 0-6.6-.534-9.2-1.6-2.6-1.067-4.75-2.567-6.45-4.5-1.7-1.934-2.983-4.217-3.85-6.85-.867-2.634-1.3-5.55-1.3-8.75 0-4 .65-8 1.95-12 1.3-4 3.217-7.6 5.75-10.8 2.533-3.2 5.633-5.817 9.3-7.85 3.667-2.034 7.867-3.05 12.6-3.05 3.467 0 6.517.533 9.15 1.6 2.633 1.066 4.8 2.566 6.5 4.5 1.7 1.933 2.983 4.216 3.85 6.85.867 2.633 1.3 5.55 1.3 8.75 0 4-.633 8-1.9 12s-3.133 7.6-5.6 10.8c-2.467 3.2-5.55 5.816-9.25 7.85-3.7 2.033-7.983 3.05-12.85 3.05zm7.4-42.8c-2.2 0-4.133.633-5.8 1.9-1.667 1.266-3.067 2.866-4.2 4.8-1.133 1.933-1.983 4.05-2.55 6.35-.567 2.3-.85 4.483-.85 6.55 0 3.4.533 6.016 1.6 7.85 1.067 1.833 3 2.75 5.8 2.75 2.2 0 4.133-.634 5.8-1.9 1.667-1.267 3.067-2.867 4.2-4.8 1.133-1.934 1.983-4.05 2.55-6.35.567-2.3.85-4.484.85-6.55 0-3.4-.533-6.017-1.6-7.85-1.067-1.834-3-2.75-5.8-2.75zm41 41.4h-14.8l12.5-52.6h14.9l-12.6 52.6zm7.2-59c-2.067 0-3.933-.617-5.6-1.85-1.667-1.234-2.5-3.117-2.5-5.65 0-1.4.283-2.717.85-3.95a10.465 10.465 0 0 1 2.25-3.2c.933-.9 2.017-1.617 3.25-2.15a9.844 9.844 0 0 1 3.95-.8c2.067 0 3.933.616 5.6 1.85 1.667 1.233 2.5 3.116 2.5 5.65 0 1.4-.283 2.716-.85 3.95a10.465 10.465 0 0 1-2.25 3.2c-.933.9-2.017 1.616-3.25 2.15-1.233.533-2.55.8-3.95.8zm18.4 8.8c1.133-.334 2.383-.717 3.75-1.15 1.367-.434 2.9-.834 4.6-1.2 1.7-.367 3.6-.667 5.7-.9 2.1-.234 4.483-.35 7.15-.35 7.867 0 13.267 2.266 16.2 6.8 2.933 4.533 3.433 10.733 1.5 18.6l-6.8 28.4h-14.9l6.6-27.8c.4-1.734.717-3.417.95-5.05.233-1.634.217-3.067-.05-4.3-.267-1.234-.883-2.234-1.85-3-.967-.767-2.45-1.15-4.45-1.15-1.933 0-3.9.2-5.9.6l-9.7 40.7h-14.9l12.1-50.2z"/></g></svg>