<?xml version="1.0" standalone="no"?>
<!DOCTYPE svg PUBLIC "-//W3C//DTD SVG 20010904//EN"
 "http://www.w3.org/TR/2001/REC-SVG-20010904/DTD/svg10.dtd">
<svg version="1.0" xmlns="http://www.w3.org/2000/svg"
 width="864.000000pt" height="474.000000pt" viewBox="0 0 864.000000 474.000000"
 preserveAspectRatio="xMidYMid meet">

<g transform="translate(0.000000,474.000000) scale(0.100000,-0.100000)"
fill="#000000" stroke="none">
<path d="M3080 3560 l0 -290 110 -127 110 -127 0 -823 0 -823 105 0 105 0 0
866 0 865 -105 121 -105 121 0 149 0 148 183 -2 182 -3 3 -182 2 -183 290 0
290 0 0 130 0 130 95 0 95 0 0 -125 0 -125 290 0 290 0 0 180 0 180 170 0 170
0 0 -143 0 -142 -110 -110 -110 -110 0 -782 0 -783 -148 0 -149 0 -12 -70
c-31 -173 -157 -320 -327 -381 -85 -31 -217 -31 -299 1 -131 50 -246 161 -297
288 -23 57 -23 60 -26 571 -3 491 -2 518 17 580 50 165 188 291 360 331 71 17
191 8 263 -20 164 -62 289 -224 305 -397 l6 -63 109 0 110 0 -7 63 c-15 138
-56 248 -130 352 -195 273 -578 365 -873 210 -172 -90 -288 -226 -350 -410
l-26 -80 -4 -485 c-3 -517 1 -593 42 -711 36 -104 81 -174 171 -264 66 -67 97
-89 175 -127 208 -102 399 -102 610 -1 82 39 108 58 185 137 73 73 99 108 134
179 l43 87 169 0 169 0 0 848 0 847 110 110 110 110 0 287 0 288 -390 0 -390
0 0 -180 0 -180 -70 0 -69 0 -3 128 -3 127 -312 3 -313 2 0 -135 0 -135 -75 0
-75 0 0 185 0 185 -400 0 -400 0 0 -290z"/>
<path d="M4339 1970 c-68 -20 -119 -85 -119 -151 0 -45 34 -110 70 -134 29
-20 30 -22 30 -102 0 -70 3 -86 20 -103 27 -27 56 -25 85 5 22 21 25 33 25
103 0 74 2 81 25 96 42 27 65 75 65 132 0 65 -29 111 -90 142 -46 23 -68 26
-111 12z"/>
</g>
</svg>
