<svg width="97" height="97" viewBox="0 0 97 97" fill="none" xmlns="http://www.w3.org/2000/svg">
<rect width="96.2264" height="96.2264" rx="28.6632" fill="#0E1B6E"/>
<path opacity="0.95" d="M25.2133 38.6964C25.1881 35.5631 26.9902 32.7022 29.8271 31.3717L60.2082 17.1237C65.5005 14.6418 71.5846 18.4741 71.6317 24.3193L71.6652 28.4886C71.6904 31.6218 69.8883 34.4828 67.0514 35.8132L36.6703 50.0612C31.378 52.5432 25.2939 48.7108 25.2468 42.8656L25.2133 38.6964Z" fill="#F1F7FF"/>
<path opacity="0.95" d="M25 67.4023C25 64.2769 26.8159 61.4363 29.6526 60.1242L59.6148 46.2659C64.9289 43.808 71 47.6891 71 53.544V57.5977C71 60.7231 69.1841 63.5637 66.3474 64.8758L36.3852 78.7341C31.0711 81.192 25 77.3109 25 71.456V67.4023Z" fill="#F1F7FF"/>
<g filter="url(#filter0_d)">
<path d="M25 38.9531C25 33.1035 31.0611 29.2223 36.374 31.6699L66.8457 45.7073C69.6884 47.0168 71.5094 49.8606 71.5094 52.9905V57.2092C71.5094 63.0588 65.4484 66.9399 60.1354 64.4924L29.6637 50.455C26.821 49.1454 25 46.3016 25 43.1717V38.9531Z" fill="white"/>
</g>
<defs>
<filter id="filter0_d" x="5.74635" y="14.8801" width="85.0167" height="72.82" filterUnits="userSpaceOnUse" color-interpolation-filters="sRGB">
<feFlood flood-opacity="0" result="BackgroundImageFix"/>
<feColorMatrix in="SourceAlpha" type="matrix" values="0 0 0 0 0 0 0 0 0 0 0 0 0 0 0 0 0 0 127 0"/>
<feOffset dy="3.20894"/>
<feGaussianBlur stdDeviation="9.62683"/>
<feColorMatrix type="matrix" values="0 0 0 0 0.054902 0 0 0 0 0.105882 0 0 0 0 0.431373 0 0 0 0.06 0"/>
<feBlend mode="normal" in2="BackgroundImageFix" result="effect1_dropShadow"/>
<feBlend mode="normal" in="SourceGraphic" in2="effect1_dropShadow" result="shape"/>
</filter>
</defs>
</svg>
