<svg xmlns="http://www.w3.org/2000/svg" fill="none" viewBox="0 0 500 500"><path fill="#F7F8FA" d="M0 0h500v500H0z"/><path fill="#0D693B" fill-rule="evenodd" d="M158.133 250.348c-8.799 8.791-21.891 10.289-30.69 1.499-7.041-7.036-7.459-16.988-2.835-25.188a23.304 23.304 0 0 1 3.442-4.374l68.725-68.667c16.948-16.934 43.717-18.075 61.989-3.423a47.313 47.313 0 0 0-3.821 3.423l-96.81 96.73Z" clip-rule="evenodd"/><path fill="#3FBB7D" fill-rule="evenodd" d="M158.133 250.348c-8.798 8.791-21.891 10.289-30.689 1.499-8.522-8.515-7.343-21.3.733-30.083-15.247 16.336-14.884 41.906 1.021 57.801l76.682 76.639c21.807 21.794 57.168 21.797 78.977.005l83.956-83.885c19.536-19.52 19.536-51.167 0-70.687l-5.431-5.426a25.16 25.16 0 0 1-1.659 1.83l-23.268 23.247c-9.637 9.63-25.263 9.63-34.901 0-9.638-9.629-9.638-25.242 0-34.871l23.268-23.248a24.95 24.95 0 0 1 1.831-1.658l-7.899-7.893c-18.173-18.157-47.637-18.157-65.81 0l-96.811 96.73Z" clip-rule="evenodd"/><path fill="#0F7944" d="m338.456 221.288 23.267-23.248c9.638-9.629 9.638-25.242 0-34.872-9.638-9.629-25.263-9.629-34.901 0l-23.268 23.248c-9.637 9.63-9.637 25.243 0 34.872 9.638 9.63 25.264 9.63 34.902 0Z"/></svg>