<svg xmlns="http://www.w3.org/2000/svg" id="Layer_1" x="0" y="0" style="enable-background:new 0 0 432 432" version="1.1" viewBox="0 0 432 432" xml:space="preserve"><style>.st0{fill:#1a2e5a}.st1{fill:#f36b32}</style><path d="M158.6 371.5c-2.1 0-4.3-.4-6.4-1.3-62.5-26-102.9-86.5-102.9-154.2S89.7 87.8 152.1 61.8c8.5-3.5 18.3.5 21.8 9s-.5 18.3-9 21.8c-50 20.8-82.3 69.3-82.3 123.4 0 54.1 32.3 102.6 82.3 123.4 8.5 3.6 12.5 13.3 9 21.8-2.6 6.5-8.8 10.3-15.3 10.3z" class="st0"/><path d="M273.4 371.5c-6.5 0-12.7-3.9-15.4-10.3-3.5-8.5.5-18.3 9-21.8 50-20.8 82.3-69.3 82.3-123.4 0-54.1-32.3-102.6-82.3-123.4-8.5-3.6-12.5-13.3-9-21.8s13.3-12.5 21.8-9c62.5 26.1 102.8 86.6 102.8 154.2s-40.4 128.2-102.8 154.2c-2 .9-4.2 1.3-6.4 1.3z" class="st1"/><path d="M216.1 314.3c-25.6 0-50.6-10-69.5-28.9-28.2-28.2-36.6-70.2-21.4-107 2.5-6 9.3-8.8 15.3-6.4 6 2.5 8.8 9.3 6.4 15.3-11.6 28.1-5.2 60.1 16.3 81.6 21.5 21.5 53.5 27.9 81.6 16.3 6-2.4 12.8.4 15.3 6.4s-.4 12.8-6.4 15.3c-12.2 4.9-25 7.4-37.6 7.4z" class="st0"/><path d="M296 260.9c-1.5 0-3-.3-4.4-.9-6-2.5-8.8-9.3-6.4-15.3 11.6-28.1 5.1-60.1-16.3-81.6-21.5-21.5-53.5-27.9-81.6-16.3-6 2.5-12.8-.4-15.3-6.4s.4-12.8 6.4-15.3c36.8-15.2 78.9-6.8 107 21.4 28.2 28.2 36.6 70.2 21.4 107-1.8 4.6-6.2 7.4-10.8 7.4z" class="st1"/></svg>